# xmcd
#
# Track frame offsets: 
#        150
#        18645
#        43222
#        70625
#        87987
#        109888
#        125758
#        142344
#        160383
#        181177
#        209659
#
# Disc length: 3078 seconds
#
# Revision: 1
# Processed by: cddbd v1.5.2PL0 Copyright (c) Steve Scherf et al.
# Submitted via: ExactAudioCopy v1.2
#
DISCID=aa0c040b
DTITLE=Benny Turner - My Brother's Blues
DYEAR=2017
DGENRE=Blues
TTITLE0=Big Legged Woman
TTITLE1=It's Your Move
TTITLE2=Have You Ever Loved A Woman
TTITLE3=I'm Tore Down (feat. Otis Clay and Marva Wright)
TTITLE4=Youve Got To Love Her With A Feeling
TTITLE5=I'm Ready (feat. Roosevelt Collier)
TTITLE6=See See Baby
TTITLE7=Mojo Boogie (feat. Carolyn Wonderland)
TTITLE8=Wee Baby Blues (feat. Roosevelt Coller and Carolyn Wonderland)
TTITLE9=Ghetto Woman
TTITLE10=Same Old Blues
EXTD=
EXTT0=
EXTT1=
EXTT2=
EXTT3=
EXTT4=
EXTT5=
EXTT6=
EXTT7=
EXTT8=
EXTT9=
EXTT10=
PLAYORDER=
